<svg xmlns="http://www.w3.org/2000/svg" viewBox="0 0 638 110" width="638" height="110" role="img" aria-label="ClaimFairly">
<title>ClaimFairly</title>
<rect x="0" y="0" width="100" height="100" rx="29" fill="#12805c"/>
<g fill="none" stroke="#ffffff" stroke-width="6.5" stroke-linecap="round"><path d="M50 25v50M32 75h36M28 37h44"/></g>
<path d="M28 37 20 56a8.8 8.8 0 0 0 16 0L28 37ZM72 37l-8 19a8.8 8.8 0 0 0 16 0L72 37Z" fill="#b9f5d8"/>
<path fill="#ffffff" transform="translate(119.6 87.85)" d="M42.0 1.2000000000000002Q34.0 1.2000000000000002 27.15 -1.7000000000000002Q20.3 -4.6000000000000005 15.200000000000001 -9.8Q10.100000000000001 -15.0 7.250000000000001 -22.0Q4.4 -29.0 4.4 -37.300000000000004Q4.4 -45.6 7.2 -52.650000000000006Q10.0 -59.7 15.100000000000001 -64.85Q20.200000000000003 -70.0 27.05 -72.85Q33.9 -75.7 42.0 -75.7Q50.1 -75.7 56.55 -73.0Q63.0 -70.3 67.5 -65.8Q72.0 -61.300000000000004 73.9 -55.800000000000004L60.2 -49.2Q58.300000000000004 -54.6 53.550000000000004 -58.150000000000006Q48.800000000000004 -61.7 42.0 -61.7Q35.4 -61.7 30.4 -58.6Q25.400000000000002 -55.5 22.650000000000002 -50.05Q19.900000000000002 -44.6 19.900000000000002 -37.300000000000004Q19.900000000000002 -30.0 22.650000000000002 -24.5Q25.400000000000002 -19.0 30.4 -15.9Q35.4 -12.8 42.0 -12.8Q48.800000000000004 -12.8 53.550000000000004 -16.35Q58.300000000000004 -19.900000000000002 60.2 -25.3L73.9 -18.7Q72.0 -13.200000000000001 67.5 -8.700000000000001Q63.0 -4.2 56.55 -1.5Q50.1 1.2000000000000002 42.0 1.2000000000000002Z M79.7 0.0V-75.7H94.7V0.0Z M119.60000000000001 1.2000000000000002Q113.7 1.2000000000000002 109.4 -0.7Q105.10000000000001 -2.6 102.80000000000001 -6.15Q100.5 -9.700000000000001 100.5 -14.600000000000001Q100.5 -19.200000000000003 102.6 -22.75Q104.7 -26.3 109.05000000000001 -28.700000000000003Q113.4 -31.1 119.9 -32.1L136.60000000000002 -34.800000000000004V-23.8L122.60000000000001 -21.3Q119.4 -20.700000000000003 117.7 -19.25Q116.0 -17.8 116.0 -15.100000000000001Q116.0 -12.600000000000001 117.9 -11.200000000000001Q119.80000000000001 -9.8 122.60000000000001 -9.8Q126.30000000000001 -9.8 129.10000000000002 -11.4Q131.9 -13.0 133.45 -15.75Q135.0 -18.5 135.0 -21.8V-36.0Q135.0 -39.1 132.55 -41.2Q130.1 -43.300000000000004 125.9 -43.300000000000004Q121.9 -43.300000000000004 118.85000000000001 -41.10000000000001Q115.80000000000001 -38.900000000000006 114.4 -35.300000000000004L102.4 -41.0Q104.0 -45.6 107.5 -48.900000000000006Q111.0 -52.2 115.9 -54.0Q120.80000000000001 -55.800000000000004 126.60000000000001 -55.800000000000004Q133.5 -55.800000000000004 138.8 -53.300000000000004Q144.10000000000002 -50.800000000000004 147.05 -46.35000000000001Q150.0 -41.900000000000006 150.0 -36.0V0.0H136.0V-8.8L139.4 -9.4Q137.0 -5.800000000000001 134.1 -3.45Q131.2 -1.1 127.6 0.050000000000000044Q124.0 1.2000000000000002 119.60000000000001 1.2000000000000002Z M158.0 0.0V-54.6H173.0V0.0ZM158.0 -59.5V-74.5H173.0V-59.5Z M181.0 0.0V-54.6H195.0V-41.300000000000004L193.5 -43.5Q194.7 -49.800000000000004 199.3 -52.800000000000004Q203.9 -55.800000000000004 210.3 -55.800000000000004Q217.1 -55.800000000000004 222.25 -52.35000000000001Q227.4 -48.900000000000006 228.7 -43.1L224.4 -42.7Q227.1 -49.400000000000006 232.1 -52.60000000000001Q237.1 -55.800000000000004 243.8 -55.800000000000004Q249.7 -55.800000000000004 254.25 -53.2Q258.8 -50.6 261.4 -45.95Q264.0 -41.300000000000004 264.0 -35.1V0.0H249.0V-31.900000000000002Q249.0 -35.1 247.85 -37.400000000000006Q246.7 -39.7 244.6 -41.0Q242.5 -42.300000000000004 239.5 -42.300000000000004Q236.6 -42.300000000000004 234.45 -41.0Q232.3 -39.7 231.15 -37.400000000000006Q230.0 -35.1 230.0 -31.900000000000002V0.0H215.0V-31.900000000000002Q215.0 -35.1 213.85 -37.400000000000006Q212.7 -39.7 210.6 -41.0Q208.5 -42.300000000000004 205.5 -42.300000000000004Q202.6 -42.300000000000004 200.45 -41.0Q198.3 -39.7 197.15 -37.400000000000006Q196.0 -35.1 196.0 -31.900000000000002V0.0Z M272.0 0.0V-74.5H323.0V-61.0H287.5V-42.1H318.0V-28.6H287.5V0.0Z M343.49999999999994 1.2000000000000002Q337.59999999999997 1.2000000000000002 333.29999999999995 -0.7Q328.99999999999994 -2.6 326.69999999999993 -6.15Q324.4 -9.700000000000001 324.4 -14.600000000000001Q324.4 -19.200000000000003 326.5 -22.75Q328.59999999999997 -26.3 332.94999999999993 -28.700000000000003Q337.29999999999995 -31.1 343.79999999999995 -32.1L360.5 -34.800000000000004V-23.8L346.49999999999994 -21.3Q343.29999999999995 -20.700000000000003 341.59999999999997 -19.25Q339.9 -17.8 339.9 -15.100000000000001Q339.9 -12.600000000000001 341.79999999999995 -11.200000000000001Q343.7 -9.8 346.49999999999994 -9.8Q350.2 -9.8 353.0 -11.4Q355.79999999999995 -13.0 357.34999999999997 -15.75Q358.9 -18.5 358.9 -21.8V-36.0Q358.9 -39.1 356.44999999999993 -41.2Q353.99999999999994 -43.300000000000004 349.79999999999995 -43.300000000000004Q345.79999999999995 -43.300000000000004 342.75 -41.10000000000001Q339.7 -38.900000000000006 338.29999999999995 -35.300000000000004L326.29999999999995 -41.0Q327.9 -45.6 331.4 -48.900000000000006Q334.9 -52.2 339.79999999999995 -54.0Q344.7 -55.800000000000004 350.49999999999994 -55.800000000000004Q357.4 -55.800000000000004 362.7 -53.300000000000004Q368.0 -50.800000000000004 370.95 -46.35000000000001Q373.9 -41.900000000000006 373.9 -36.0V0.0H359.9V-8.8L363.29999999999995 -9.4Q360.9 -5.800000000000001 358.0 -3.45Q355.09999999999997 -1.1 351.5 0.050000000000000044Q347.9 1.2000000000000002 343.49999999999994 1.2000000000000002Z M381.9 0.0V-54.6H396.9V0.0ZM381.9 -59.5V-74.5H396.9V-59.5Z M404.9 0.0V-54.6H418.9V-41.5L417.9 -43.400000000000006Q419.7 -50.300000000000004 423.85 -52.75Q428.0 -55.2 433.7 -55.2H436.9V-42.2H432.2Q426.7 -42.2 423.29999999999995 -38.85Q419.9 -35.5 419.9 -29.400000000000002V0.0Z M440.5 0.0V-75.7H455.5V0.0Z M472.0 22.0Q469.6 22.0 467.35 21.6Q465.1 21.200000000000003 463.4 20.3V8.0Q464.8 8.4 466.70000000000005 8.7Q468.6 9.0 470.2 9.0Q474.6 9.0 476.5 6.95Q478.4 4.9 479.6 2.3000000000000003L483.3 -6.2L483.1 6.300000000000001L459.1 -54.6H475.2L491.1 -11.3H485.1L501.0 -54.6H517.1L493.7 5.1000000000000005Q491.5 10.700000000000001 488.3 14.5Q485.1 18.3 481.05 20.15Q477.0 22.0 472.0 22.0Z"/>
</svg>
